<?xml version="1.0" encoding="UTF-8"?><svg xmlns="http://www.w3.org/2000/svg" xmlns:xlink="http://www.w3.org/1999/xlink" width="900pt" zoomAndPan="magnify" viewBox="0 0 900 374.999991" height="374.999991pt" preserveAspectRatio="xMidYMid meet" version="1.2"><defs><g/><clipPath xml:id="clip1" id="clip1"><path d="M 8 130.585938 L 120 130.585938 L 120 241 L 8 241 Z M 8 130.585938 "/></clipPath><clipPath xml:id="clip2" id="clip2"><path d="M 115 176 L 120.433594 176 L 120.433594 181 L 115 181 Z M 115 176 "/></clipPath><clipPath xml:id="clip3" id="clip3"><path d="M 50 236 L 56 236 L 56 241.585938 L 50 241.585938 Z M 50 236 "/></clipPath></defs><g xml:id="surface1" id="surface1"><g clip-rule="nonzero" clip-path="url(#clip1)"><path style=" stroke:none;fill-rule:nonzero;fill:rgb(100%,8.628845%,8.628845%);fill-opacity:1;" d="M 116.261719 197.753906 C 115.953125 195.21875 114.941406 192.835938 113.226562 190.554688 C 115.023438 187.550781 116.390625 184.761719 117.277344 182.308594 C 117.519531 186.105469 117.566406 191.109375 116.476562 196.753906 C 116.40625 197.097656 116.335938 197.425781 116.261719 197.753906 Z M 60.128906 238.875 C 62.671875 238.015625 65.554688 236.636719 68.730469 234.765625 C 70.460938 235.949219 72.699219 237.378906 75.808594 237.828125 C 72.847656 238.472656 69.332031 238.972656 65.238281 239.03125 C 65.023438 239.03125 64.816406 239.035156 64.609375 239.035156 C 63.175781 239.035156 61.703125 238.980469 60.128906 238.875 Z M 30.644531 227.878906 C 31.984375 227.878906 33.539062 227.640625 35.265625 227.167969 C 36.410156 226.851562 37.648438 226.425781 38.9375 225.90625 C 41.644531 230.054688 44.734375 234.203125 49.582031 237.105469 C 45.152344 235.980469 39.8125 234.109375 34.023438 230.453125 C 32.851562 229.703125 31.699219 228.910156 30.394531 227.953125 C 30.355469 227.925781 30.316406 227.894531 30.277344 227.867188 C 30.398438 227.871094 30.515625 227.878906 30.644531 227.878906 Z M 12.324219 203.671875 C 13.101562 204.0625 14.105469 204.3125 15.410156 204.3125 C 15.410156 204.3125 15.410156 204.3125 15.414062 204.3125 C 15.707031 204.3125 16.019531 204.292969 16.335938 204.269531 C 17.039062 208.128906 18.125 213.566406 21.164062 219.113281 C 19.84375 217.542969 18.5 215.761719 17.199219 213.714844 C 15.644531 211.226562 14.316406 208.628906 13.136719 205.765625 C 12.859375 205.070312 12.589844 204.367188 12.324219 203.671875 Z M 19 201.898438 C 18.5 202.035156 18.019531 202.148438 17.558594 202.238281 C 17.097656 197.84375 16.4375 190.335938 18.042969 178.582031 C 19.265625 183.359375 21.777344 189.90625 28.941406 197.421875 C 25.179688 199.617188 21.835938 201.121094 19 201.898438 Z M 30.941406 196.28125 C 30.105469 190.851562 29.246094 184.855469 28.320312 171.515625 C 30.953125 174.953125 35.410156 179.867188 45.277344 185.664062 C 40.34375 189.847656 35.421875 193.492188 30.941406 196.28125 Z M 47.214844 183.996094 C 44.992188 176.664062 42.492188 168.5625 39.402344 161.628906 C 43.550781 163.605469 48.714844 165.835938 61.640625 169.761719 C 57.1875 174.714844 52.226562 179.605469 47.214844 183.996094 Z M 69.242188 160.632812 C 67.425781 163.007812 65.453125 165.417969 63.367188 167.816406 C 60.71875 163.132812 56.230469 155.511719 49.726562 150.207031 C 57.074219 150.683594 65.824219 151.320312 74.773438 152.742188 C 73.1875 155.253906 71.328125 157.90625 69.242188 160.632812 Z M 75.96875 150.785156 C 72.199219 147.308594 66.363281 142.195312 57.460938 139.839844 C 60.898438 139.429688 65.1875 139.039062 70.023438 139.039062 C 73.753906 139.039062 77.375 139.28125 80.804688 139.753906 C 80.140625 142.753906 78.480469 146.539062 75.96875 150.785156 Z M 82.878906 138.574219 C 83.101562 136.640625 82.855469 135.230469 82.371094 134.214844 C 86.765625 135.902344 92.796875 138.671875 99.019531 144.238281 C 95.332031 142.027344 90.234375 139.84375 82.878906 138.574219 Z M 113.136719 193.347656 C 114.375 195.457031 115.472656 198.308594 114.808594 202.265625 C 114.597656 203.375 114.304688 204.359375 114.023438 205.269531 C 113.96875 205.433594 113.90625 205.59375 113.84375 205.757812 C 113.25 207.109375 112.417969 208.621094 111.386719 210.234375 C 112.398438 206.503906 113.390625 201.019531 113.136719 193.347656 Z M 100.9375 208.253906 C 104.417969 209.777344 108.25 211.640625 108.625 214.152344 L 108.617188 214.160156 C 106.664062 216.714844 104.441406 219.269531 101.996094 221.765625 C 101.90625 217.582031 101.550781 213.050781 100.9375 208.253906 Z M 92.222656 230.398438 C 90.738281 230.152344 88.75 229.515625 85.753906 223.269531 C 88.871094 223.667969 94.027344 224.265625 98.746094 224.265625 C 98.988281 224.265625 99.226562 224.265625 99.460938 224.261719 C 97.078125 226.519531 94.601562 228.617188 92.222656 230.398438 Z M 83.953125 235.4375 C 82.320312 235.945312 80.289062 236.574219 77.988281 236.574219 C 75.683594 236.574219 73.5 235.949219 71.363281 234.664062 C 72.28125 234.695312 73.300781 234.71875 74.390625 234.71875 C 79.570312 234.71875 84.117188 234.214844 88.164062 233.191406 C 86.648438 234.128906 85.226562 234.890625 83.953125 235.4375 Z M 37.019531 222.640625 C 31.773438 219.28125 23.9375 213.644531 18.199219 203.996094 C 18.632812 203.90625 19.078125 203.800781 19.539062 203.675781 C 22.480469 202.867188 25.921875 201.324219 29.777344 199.085938 C 30.933594 205.347656 32.691406 214.175781 37.019531 222.640625 Z M 104.460938 160.949219 C 105.832031 157.632812 106.519531 154.820312 106.519531 152.542969 C 109.542969 156.730469 113.425781 162.859375 115.714844 172.070312 C 113.824219 168.714844 110.621094 164.851562 104.460938 160.949219 Z M 101.332031 206.574219 C 103.320312 204.289062 105.207031 201.992188 106.9375 199.726562 C 108.671875 197.460938 110.238281 195.25 111.617188 193.128906 C 111.765625 197.765625 111.710938 205.089844 109.4375 212.117188 C 108.632812 210.660156 106.71875 208.894531 101.332031 206.574219 Z M 99.757812 222.769531 C 95.769531 222.769531 91.222656 222.417969 86.242188 221.738281 C 90.800781 217.722656 95.296875 213.285156 99.371094 208.777344 C 99.800781 212.109375 100.429688 217.492188 100.542969 222.761719 C 100.3125 222.765625 100.050781 222.769531 99.757812 222.769531 Z M 27.777344 225.816406 C 24.816406 222.425781 20.535156 217.441406 18.320312 206.898438 C 21.472656 211.628906 26.839844 218.382812 37.230469 224.636719 C 36.277344 224.996094 35.359375 225.296875 34.496094 225.535156 C 31.652344 226.316406 29.359375 226.410156 27.777344 225.816406 Z M 54.847656 212.867188 C 49.078125 210.191406 39.808594 205.605469 31.757812 197.953125 C 36.332031 195.121094 41.359375 191.40625 46.398438 187.140625 C 49.925781 199.046875 51.933594 205.636719 54.847656 212.867188 Z M 73.941406 196.679688 C 66.25 193.761719 57.003906 190.171875 48.355469 185.449219 C 53.472656 180.972656 58.53125 175.980469 63.078125 170.925781 C 65.621094 175.988281 68.386719 181.691406 73.941406 196.679688 Z M 91.113281 177.15625 C 85.007812 174.914062 83.664062 174.507812 64.832031 168.941406 C 66.925781 166.53125 68.914062 164.105469 70.738281 161.722656 C 72.890625 158.910156 74.800781 156.179688 76.433594 153.585938 C 79.890625 157.433594 85.695312 164.234375 91.113281 177.15625 Z M 116.863281 178.203125 C 116.351562 180.898438 114.9375 184.3125 112.75 188.164062 C 112.109375 182.554688 110.746094 173.753906 105.710938 163.734375 C 109.730469 166.589844 114.621094 170.8125 116.863281 178.203125 Z M 84.070312 223.617188 C 85.429688 226.386719 87.289062 229.871094 89.878906 231.25 C 86.746094 232.183594 81.886719 233.304688 74.703125 233.304688 C 73.578125 233.304688 72.417969 233.273438 71.246094 233.21875 C 75.292969 230.625 79.683594 227.34375 84.070312 223.617188 Z M 54.695312 214.667969 C 49.152344 218.675781 43.921875 221.804688 39.476562 223.769531 C 37.132812 219.347656 34.0625 213.246094 31.578125 199.980469 C 35.589844 203.59375 42.421875 209.214844 54.695312 214.667969 Z M 101.238281 159.054688 C 96.820312 156.75 90.167969 153.804688 77.65625 151.585938 C 80.152344 147.34375 81.828125 143.527344 82.550781 140.4375 C 87.242188 143.386719 94.421875 148.234375 101.238281 159.054688 Z M 104.59375 150.082031 C 105.195312 152.21875 104.707031 155.386719 103.171875 159.3125 C 99.984375 154.265625 94.957031 146.820312 85.808594 140.707031 C 91.183594 141.933594 98.304688 144.222656 104.59375 150.082031 Z M 41.007812 225.070312 C 45.492188 223.015625 50.703125 219.859375 56.203125 215.859375 C 58.554688 221.191406 61.683594 228.027344 66.460938 232.804688 C 60.671875 232.09375 51.472656 230.582031 41.007812 225.070312 Z M 56.820312 213.097656 C 53.824219 205.605469 52.664062 202.121094 48.210938 187.300781 C 53.128906 189.921875 59.636719 193.21875 73.773438 198.496094 C 68.238281 203.875 62.40625 208.894531 56.820312 213.097656 Z M 75.757812 196.539062 C 72.695312 188.339844 69.242188 179.207031 64.929688 170.75 C 81.316406 175.609375 85.035156 176.726562 91.195312 179.054688 C 86.675781 184.9375 81.488281 190.816406 75.757812 196.539062 Z M 94.03125 178.375 C 98.214844 172.738281 101.414062 167.574219 103.558594 162.996094 C 106.074219 167.914062 109.96875 176.195312 111.300781 188.425781 C 108.71875 185.878906 104.578125 182.597656 94.03125 178.375 Z M 94.316406 180.394531 C 99.65625 182.601562 106.867188 185.800781 111.25 190.679688 C 109.6875 193.183594 107.835938 195.839844 105.738281 198.582031 C 104.105469 200.714844 102.339844 202.882812 100.476562 205.039062 C 99.652344 199.789062 98.050781 190.570312 94.316406 180.394531 Z M 84.707031 220.882812 C 84.195312 219.53125 82.78125 215.617188 77.054688 199.792969 C 79.605469 200.6875 82.191406 201.550781 84.707031 202.390625 C 89.261719 203.914062 93.960938 205.484375 98.519531 207.257812 C 94.253906 212 89.507812 216.683594 84.707031 220.882812 Z M 68.851562 232.800781 C 66.335938 230.429688 62.976562 226.988281 58.234375 216.21875 C 63.472656 218.242188 71.027344 220.960938 82.476562 222.800781 C 77.777344 226.753906 73.09375 230.191406 68.851562 232.800781 Z M 92.828125 176.886719 C 90.375 171.191406 86.105469 161.789062 78.535156 153.410156 C 85.035156 154.664062 93.945312 156.640625 102.28125 161.417969 C 100.234375 165.9375 96.988281 171.253906 92.828125 176.886719 Z M 86.242188 201.128906 C 83.203125 200.097656 80.078125 199.027344 77.003906 197.921875 C 82.742188 192.191406 87.945312 186.308594 92.484375 180.414062 C 94.394531 185.695312 97.035156 193.417969 98.925781 205.613281 C 94.71875 204.015625 90.417969 202.546875 86.242188 201.128906 Z M 82.992188 221.242188 C 77.621094 220.332031 68.667969 218.652344 58.164062 214.40625 C 63.773438 210.171875 69.617188 205.132812 75.164062 199.738281 C 81.195312 216.554688 82.222656 219.414062 82.992188 221.242188 Z M 56.003906 238.386719 C 52.5625 237.167969 47.0625 235.128906 41.558594 227.046875 C 46.636719 229.53125 54.746094 233.03125 66.277344 234.3125 C 63.117188 236.078125 60.289062 237.308594 57.851562 237.976562 C 57.203125 238.15625 56.582031 238.292969 56.003906 238.386719 Z M 74.992188 132.289062 C 75.851562 132.410156 76.730469 132.558594 77.75 132.757812 C 78.234375 132.859375 78.71875 132.96875 79.195312 133.089844 C 80.683594 133.847656 81.320312 135.472656 81.097656 137.933594 C 76.984375 135.917969 70.644531 133.03125 61.921875 132.570312 C 64.269531 132.207031 66.871094 131.941406 69.621094 131.941406 C 71.445312 131.941406 73.253906 132.058594 74.992188 132.289062 Z M 10.582031 183.023438 C 10.738281 188.234375 11.796875 194.9375 15.660156 202.476562 C 13.285156 202.585938 11.765625 201.816406 11.132812 200.195312 C 10.386719 196.722656 9.253906 191.390625 10.582031 183.023438 Z M 119.214844 185.96875 L 119.191406 185.285156 C 119.179688 184.441406 119.160156 183.734375 119.097656 183.046875 C 118.996094 181.398438 118.824219 180.523438 118.324219 178.359375 C 118.5 177.1875 118.511719 176.132812 118.347656 175.203125 L 118.296875 174.964844 C 118.28125 174.851562 118.265625 174.738281 118.242188 174.621094 C 118.082031 173.792969 117.847656 172.816406 117.640625 171.972656 C 117.460938 171.183594 117.304688 170.535156 117.160156 169.996094 C 117.15625 169.992188 117.15625 169.988281 117.15625 169.984375 C 116.613281 168.085938 116.367188 167.25 115.722656 165.628906 C 115.164062 164.015625 114.726562 162.960938 113.988281 161.457031 C 113.324219 160.003906 112.335938 158.269531 111.460938 156.742188 C 111.277344 156.421875 111.101562 156.113281 110.921875 155.792969 L 110.554688 155.210938 C 110.546875 155.195312 110.53125 155.175781 110.519531 155.160156 L 110.488281 155.117188 C 109.960938 154.296875 109.554688 153.707031 108.929688 152.945312 C 107.839844 151.464844 107.386719 150.957031 106.035156 149.605469 C 105.792969 148.976562 105.464844 148.421875 105.035156 147.945312 L 104.808594 147.707031 C 104.746094 147.628906 104.683594 147.558594 104.609375 147.476562 L 103.046875 145.847656 C 103.015625 145.800781 102.972656 145.761719 102.929688 145.726562 C 101.527344 144.332031 100.882812 143.703125 99.488281 142.578125 C 98.164062 141.40625 97.5 140.917969 95.789062 139.695312 C 95.785156 139.695312 95.785156 139.691406 95.785156 139.691406 C 95.785156 139.691406 95.78125 139.691406 95.78125 139.691406 C 94.15625 138.542969 93.429688 138.042969 91.867188 137.167969 C 90.382812 136.246094 89.441406 135.738281 87.851562 135 C 86.71875 134.433594 85.257812 133.847656 83.964844 133.332031 C 83.550781 133.164062 83.148438 133.003906 82.78125 132.851562 C 82.765625 132.847656 82.75 132.839844 82.734375 132.835938 L 82.535156 132.773438 C 82.398438 132.71875 82.261719 132.667969 82.125 132.617188 C 82.113281 132.613281 82.105469 132.609375 82.09375 132.605469 L 79.929688 131.929688 L 79.582031 131.835938 C 79.558594 131.828125 79.539062 131.824219 79.519531 131.820312 L 79.449219 131.808594 L 79.269531 131.753906 C 79.25 131.75 79.230469 131.742188 79.210938 131.742188 C 78.832031 131.664062 78.429688 131.582031 78.003906 131.496094 C 77.074219 131.304688 76.117188 131.140625 75.164062 131.015625 C 73.183594 130.738281 71.242188 130.605469 69.226562 130.605469 C 64.519531 130.605469 59.542969 131.332031 54.011719 132.828125 C 53.890625 132.859375 53.78125 132.925781 53.699219 133.019531 C 53.480469 133.171875 53.371094 133.445312 53.441406 133.710938 C 53.519531 134.015625 53.8125 134.21875 54.125 134.1875 L 54.253906 134.179688 C 55.785156 134.074219 57.519531 133.957031 59.523438 133.957031 C 65.867188 133.957031 71.886719 135.269531 77.820312 137.949219 C 75.648438 137.75 72.996094 137.582031 69.839844 137.582031 C 64.597656 137.582031 58.957031 138.050781 53.078125 138.972656 L 52.875 139.007812 C 52.851562 139.011719 52.816406 139.019531 52.796875 139.023438 C 52.703125 139.050781 52.507812 139.101562 52.351562 139.269531 C 52.203125 139.421875 52.144531 139.644531 52.191406 139.851562 C 52.238281 140.0625 52.386719 140.234375 52.589844 140.3125 L 52.722656 140.363281 C 52.765625 140.378906 52.8125 140.390625 52.859375 140.398438 L 52.996094 140.417969 C 57.542969 141.324219 64.984375 142.816406 73.824219 150.976562 C 68.191406 150.148438 61.921875 149.355469 47.375 148.542969 L 47.1875 148.535156 C 47.144531 148.535156 47.078125 148.539062 47.03125 148.542969 C 46.933594 148.558594 46.695312 148.597656 46.511719 148.789062 C 46.304688 149.003906 46.273438 149.339844 46.441406 149.59375 L 46.519531 149.707031 C 46.5625 149.769531 46.617188 149.828125 46.683594 149.875 L 46.777344 149.941406 C 49.910156 152.382812 55.066406 156.417969 61.492188 167.945312 C 54.21875 165.738281 45.527344 163.015625 38.210938 159.320312 L 38.066406 159.25 C 37.996094 159.210938 37.917969 159.1875 37.839844 159.183594 L 37.703125 159.167969 C 37.515625 159.152344 37.328125 159.214844 37.191406 159.347656 C 37.191406 159.351562 37.164062 159.375 37.164062 159.375 C 37.039062 159.5 36.96875 159.710938 36.976562 159.886719 C 36.980469 159.964844 36.984375 160.105469 37.054688 160.261719 L 37.109375 160.371094 C 39.710938 166.210938 41.425781 170.546875 45.382812 183.734375 C 40.285156 180.652344 32.855469 175.816406 28.058594 168.535156 L 28 168.449219 C 27.832031 168.183594 27.496094 168.085938 27.207031 168.210938 C 26.988281 168.304688 26.847656 168.507812 26.824219 168.730469 C 26.710938 168.859375 26.648438 169.027344 26.660156 169.199219 C 27.089844 176.121094 27.671875 185.425781 29.132812 195.191406 C 25.332031 190.941406 20.199219 184.398438 18.675781 174.617188 C 18.644531 174.421875 18.523438 174.25 18.347656 174.152344 C 18.171875 174.058594 17.964844 174.046875 17.78125 174.128906 L 17.558594 174.222656 C 17.347656 174.308594 17.203125 174.496094 17.167969 174.71875 C 16.371094 179.882812 14.96875 189.007812 15.726562 199.058594 C 13.421875 193.828125 10.976562 186.246094 12.21875 175.777344 C 12.253906 175.488281 12.089844 175.210938 11.820312 175.105469 L 11.746094 175.070312 C 11.570312 174.988281 11.367188 174.988281 11.195312 175.070312 C 11.019531 175.152344 10.890625 175.308594 10.84375 175.496094 C 9.46875 180.933594 7.167969 190.03125 9.789062 200.203125 L 9.847656 200.410156 C 9.851562 200.421875 9.851562 200.433594 9.851562 200.445312 L 10.382812 202.210938 C 10.457031 202.425781 10.539062 202.652344 10.625 202.882812 C 11.265625 204.769531 12.003906 206.617188 12.816406 208.371094 C 12.9375 208.660156 13.058594 208.9375 13.175781 209.207031 C 13.179688 209.210938 13.179688 209.21875 13.183594 209.222656 C 13.183594 209.230469 13.1875 209.234375 13.191406 209.238281 C 14.09375 211.097656 14.457031 211.820312 15.363281 213.28125 C 16.222656 214.816406 16.71875 215.539062 17.859375 217.164062 C 17.859375 217.164062 17.863281 217.167969 17.863281 217.167969 C 19.085938 218.886719 19.570312 219.546875 20.746094 220.875 C 21.878906 222.285156 22.503906 222.925781 23.933594 224.367188 C 23.9375 224.371094 23.941406 224.375 23.945312 224.378906 C 23.945312 224.378906 23.945312 224.378906 23.945312 224.382812 L 25.601562 225.96875 C 25.671875 226.035156 25.742188 226.097656 25.816406 226.160156 L 26.070312 226.398438 C 26.421875 226.71875 26.832031 226.988281 27.28125 227.203125 C 28.246094 228.0625 30.011719 229.601562 31.429688 230.664062 C 31.441406 230.671875 31.449219 230.679688 31.460938 230.6875 L 31.875 230.960938 L 32.019531 231.070312 C 32.03125 231.078125 32.042969 231.089844 32.054688 231.097656 L 33.75 232.203125 C 33.753906 232.207031 33.757812 232.207031 33.761719 232.210938 L 33.765625 232.214844 C 35.445312 233.257812 36.191406 233.710938 37.761719 234.480469 C 39.265625 235.300781 40.003906 235.621094 41.90625 236.421875 C 41.90625 236.425781 41.910156 236.425781 41.914062 236.425781 C 43.746094 237.175781 44.558594 237.503906 46.210938 237.996094 C 47.808594 238.550781 48.703125 238.773438 50.558594 239.21875 C 50.566406 239.222656 50.574219 239.222656 50.578125 239.222656 L 52.777344 239.691406 C 52.875 239.710938 52.972656 239.726562 53.074219 239.742188 L 53.378906 239.804688 C 53.816406 239.882812 54.289062 239.921875 54.789062 239.921875 C 55.210938 239.921875 55.664062 239.890625 56.136719 239.835938 C 59.671875 240.554688 60.070312 240.632812 62.816406 240.703125 C 62.824219 240.707031 62.835938 240.707031 62.847656 240.703125 L 63.152344 240.695312 L 63.34375 240.707031 C 63.355469 240.707031 63.367188 240.707031 63.378906 240.707031 C 63.378906 240.707031 63.382812 240.707031 63.386719 240.707031 C 64.214844 240.699219 65.25 240.65625 66.648438 240.578125 C 67.488281 240.539062 68.222656 240.496094 68.832031 240.445312 C 68.835938 240.445312 68.84375 240.445312 68.847656 240.445312 C 68.851562 240.445312 68.859375 240.445312 68.863281 240.441406 C 71.042969 240.191406 72.246094 240.019531 73.460938 239.792969 C 74.9375 239.539062 76.207031 239.238281 78.324219 238.699219 C 78.328125 238.699219 78.332031 238.699219 78.335938 238.695312 C 78.34375 238.695312 78.351562 238.691406 78.359375 238.691406 C 78.511719 238.644531 78.667969 238.59375 78.828125 238.546875 C 82.386719 237.457031 82.550781 237.398438 84.671875 236.539062 L 84.726562 236.519531 C 84.734375 236.515625 84.738281 236.511719 84.742188 236.507812 L 84.820312 236.480469 C 84.820312 236.480469 84.820312 236.476562 84.820312 236.476562 L 85.0625 236.378906 C 85.074219 236.375 85.082031 236.371094 85.09375 236.367188 C 85.105469 236.363281 85.125 236.355469 85.136719 236.351562 C 85.148438 236.34375 85.160156 236.339844 85.171875 236.332031 L 85.773438 236.078125 C 85.84375 236.046875 85.910156 236.003906 85.964844 235.949219 C 87.988281 234.964844 90.285156 233.539062 92.699219 231.773438 C 94.195312 231.457031 94.355469 231.40625 95.425781 230.691406 L 95.527344 230.617188 C 95.542969 230.609375 95.558594 230.597656 95.574219 230.589844 L 95.800781 230.425781 C 95.800781 230.421875 95.804688 230.421875 95.808594 230.421875 C 96.128906 230.191406 96.476562 229.945312 96.753906 229.738281 C 96.753906 229.734375 96.757812 229.734375 96.757812 229.734375 L 97.074219 229.496094 C 97.292969 229.328125 97.53125 229.148438 97.742188 228.984375 L 97.796875 228.945312 C 97.804688 228.9375 97.8125 228.933594 97.824219 228.925781 L 97.941406 228.832031 C 98.214844 228.617188 98.265625 228.226562 98.0625 227.945312 C 97.980469 227.835938 97.867188 227.757812 97.742188 227.71875 C 98.675781 226.902344 99.605469 226.058594 100.523438 225.191406 C 100.507812 225.433594 100.621094 225.667969 100.835938 225.789062 C 100.9375 225.847656 101.046875 225.875 101.15625 225.875 C 101.320312 225.875 101.480469 225.816406 101.601562 225.695312 L 101.675781 225.625 C 101.683594 225.617188 101.695312 225.613281 101.703125 225.605469 C 101.820312 225.496094 101.949219 225.371094 102.082031 225.242188 C 102.265625 225.066406 102.453125 224.886719 102.609375 224.734375 C 102.839844 224.507812 103.121094 224.222656 103.378906 223.960938 L 103.640625 223.695312 C 103.648438 223.6875 103.65625 223.675781 103.664062 223.667969 L 103.742188 223.585938 C 103.953125 223.371094 103.984375 223.035156 103.816406 222.785156 C 103.6875 222.589844 103.464844 222.484375 103.242188 222.5 C 104.148438 221.5625 105.027344 220.621094 105.871094 219.675781 C 105.910156 219.800781 105.984375 219.917969 106.097656 220.003906 C 106.214844 220.089844 106.347656 220.132812 106.484375 220.132812 C 106.679688 220.132812 106.867188 220.046875 106.992188 219.886719 L 107.078125 219.78125 C 107.089844 219.769531 107.097656 219.757812 107.109375 219.742188 L 107.808594 218.851562 C 108.070312 218.507812 108.382812 218.074219 108.660156 217.691406 L 108.992188 217.238281 C 108.996094 217.226562 109.003906 217.214844 109.011719 217.203125 L 109.117188 217.058594 C 109.132812 217.035156 109.148438 217.007812 109.164062 216.980469 C 109.910156 215.511719 110.015625 215.304688 110.042969 214.574219 C 111.894531 212.09375 113.34375 209.804688 114.363281 207.742188 C 114.414062 207.691406 114.457031 207.632812 114.488281 207.5625 L 114.605469 207.289062 C 114.609375 207.28125 114.613281 207.277344 114.617188 207.269531 L 114.761719 206.929688 C 114.765625 206.925781 114.765625 206.917969 114.769531 206.914062 L 114.9375 206.503906 C 114.941406 206.5 114.941406 206.496094 114.945312 206.496094 L 114.988281 206.378906 L 115.003906 206.347656 C 115.007812 206.339844 115.007812 206.332031 115.011719 206.324219 L 115.109375 206.074219 C 115.117188 206.066406 115.121094 206.054688 115.125 206.046875 C 115.179688 205.921875 115.226562 205.800781 115.28125 205.664062 C 116.402344 202.683594 116.714844 201.710938 117.382812 199.175781 C 117.515625 198.679688 117.65625 198.136719 117.816406 197.523438 C 117.816406 197.515625 117.816406 197.507812 117.820312 197.503906 C 117.820312 197.496094 117.824219 197.492188 117.824219 197.488281 C 118.257812 195.429688 118.496094 194.191406 118.683594 192.722656 C 118.910156 191.214844 119.046875 189.835938 119.140625 188.109375 C 119.140625 188.105469 119.140625 188.101562 119.140625 188.097656 L 119.203125 186.535156 L 119.203125 186.367188 L 119.214844 186.011719 C 119.214844 186 119.214844 185.984375 119.214844 185.96875 "/></g><path style=" stroke:none;fill-rule:nonzero;fill:rgb(32.939148%,32.939148%,32.939148%);fill-opacity:1;" d="M 68.734375 168.65625 C 68.734375 171.9375 66.066406 174.597656 62.777344 174.597656 C 59.488281 174.597656 56.824219 171.9375 56.824219 168.65625 C 56.824219 165.375 59.488281 162.714844 62.777344 162.714844 C 66.066406 162.714844 68.734375 165.375 68.734375 168.65625 "/><path style=" stroke:none;fill-rule:nonzero;fill:rgb(32.939148%,32.939148%,32.939148%);fill-opacity:1;" d="M 97.726562 178.375 C 97.726562 181.652344 95.058594 184.3125 91.769531 184.3125 C 88.480469 184.3125 85.816406 181.652344 85.816406 178.375 C 85.816406 175.09375 88.480469 172.433594 91.769531 172.433594 C 95.058594 172.433594 97.726562 175.09375 97.726562 178.375 "/><path style=" stroke:none;fill-rule:nonzero;fill:rgb(32.939148%,32.939148%,32.939148%);fill-opacity:1;" d="M 106.308594 204.980469 C 106.308594 208.261719 103.640625 210.921875 100.351562 210.921875 C 97.0625 210.921875 94.398438 208.261719 94.398438 204.980469 C 94.398438 201.703125 97.0625 199.042969 100.351562 199.042969 C 103.640625 199.042969 106.308594 201.703125 106.308594 204.980469 "/><path style=" stroke:none;fill-rule:nonzero;fill:rgb(32.939148%,32.939148%,32.939148%);fill-opacity:1;" d="M 79.773438 195.9375 C 79.773438 199.222656 77.109375 201.878906 73.820312 201.878906 C 70.53125 201.878906 67.867188 199.222656 67.867188 195.9375 C 67.867188 192.660156 70.53125 190 73.820312 190 C 77.109375 190 79.773438 192.660156 79.773438 195.9375 "/><path style=" stroke:none;fill-rule:nonzero;fill:rgb(32.939148%,32.939148%,32.939148%);fill-opacity:1;" d="M 90.675781 219.078125 C 90.675781 222.359375 88.011719 225.015625 84.722656 225.015625 C 81.433594 225.015625 78.765625 222.359375 78.765625 219.078125 C 78.765625 215.796875 81.433594 213.136719 84.722656 213.136719 C 88.011719 213.136719 90.675781 215.796875 90.675781 219.078125 "/><path style=" stroke:none;fill-rule:nonzero;fill:rgb(32.939148%,32.939148%,32.939148%);fill-opacity:1;" d="M 80.265625 151.46875 C 80.265625 153.546875 78.574219 155.234375 76.492188 155.234375 C 74.40625 155.234375 72.71875 153.546875 72.71875 151.46875 C 72.71875 149.390625 74.40625 147.703125 76.492188 147.703125 C 78.574219 147.703125 80.265625 149.390625 80.265625 151.46875 "/><path style=" stroke:none;fill-rule:nonzero;fill:rgb(32.939148%,32.939148%,32.939148%);fill-opacity:1;" d="M 106.605469 161.082031 C 106.605469 163.160156 104.914062 164.847656 102.828125 164.847656 C 100.746094 164.847656 99.054688 163.160156 99.054688 161.082031 C 99.054688 159.003906 100.746094 157.316406 102.828125 157.316406 C 104.914062 157.316406 106.605469 159.003906 106.605469 161.082031 "/><path style=" stroke:none;fill-rule:nonzero;fill:rgb(32.939148%,32.939148%,32.939148%);fill-opacity:1;" d="M 116.113281 190.234375 C 116.113281 192.316406 114.425781 194 112.339844 194 C 110.253906 194 108.566406 192.316406 108.566406 190.234375 C 108.566406 188.15625 110.253906 186.472656 112.339844 186.472656 C 114.425781 186.472656 116.113281 188.15625 116.113281 190.234375 "/><path style=" stroke:none;fill-rule:nonzero;fill:rgb(32.939148%,32.939148%,32.939148%);fill-opacity:1;" d="M 50.015625 186.109375 C 50.015625 188.191406 48.324219 189.875 46.238281 189.875 C 44.15625 189.875 42.46875 188.191406 42.46875 186.109375 C 42.46875 184.03125 44.15625 182.347656 46.238281 182.347656 C 48.324219 182.347656 50.015625 184.03125 50.015625 186.109375 "/><path style=" stroke:none;fill-rule:nonzero;fill:rgb(32.939148%,32.939148%,32.939148%);fill-opacity:1;" d="M 59.0625 214.339844 C 59.0625 216.417969 57.371094 218.101562 55.285156 218.101562 C 53.203125 218.101562 51.511719 216.417969 51.511719 214.339844 C 51.511719 212.257812 53.203125 210.574219 55.285156 210.574219 C 57.371094 210.574219 59.0625 212.257812 59.0625 214.339844 "/><path style=" stroke:none;fill-rule:nonzero;fill:rgb(32.939148%,32.939148%,32.939148%);fill-opacity:1;" d="M 70.996094 233.472656 C 70.996094 235.550781 69.308594 237.238281 67.222656 237.238281 C 65.136719 237.238281 63.449219 235.550781 63.449219 233.472656 C 63.449219 231.394531 65.136719 229.707031 67.222656 229.707031 C 69.308594 229.707031 70.996094 231.394531 70.996094 233.472656 "/><path style=" stroke:none;fill-rule:nonzero;fill:rgb(32.939148%,32.939148%,32.939148%);fill-opacity:1;" d="M 84.457031 139.191406 C 84.457031 140.480469 83.410156 141.527344 82.117188 141.527344 C 80.824219 141.527344 79.773438 140.480469 79.773438 139.191406 C 79.773438 137.902344 80.824219 136.859375 82.117188 136.859375 C 83.410156 136.859375 84.457031 137.902344 84.457031 139.191406 "/><path style=" stroke:none;fill-rule:nonzero;fill:rgb(32.939148%,32.939148%,32.939148%);fill-opacity:1;" d="M 108.117188 149.605469 C 108.117188 150.894531 107.066406 151.9375 105.773438 151.9375 C 104.480469 151.9375 103.433594 150.894531 103.433594 149.605469 C 103.433594 148.316406 104.480469 147.269531 105.773438 147.269531 C 107.066406 147.269531 108.117188 148.316406 108.117188 149.605469 "/><g clip-rule="nonzero" clip-path="url(#clip2)"><path style=" stroke:none;fill-rule:nonzero;fill:rgb(32.939148%,32.939148%,32.939148%);fill-opacity:1;" d="M 120.40625 178.375 C 120.40625 179.664062 119.359375 180.707031 118.066406 180.707031 C 116.773438 180.707031 115.726562 179.664062 115.726562 178.375 C 115.726562 177.085938 116.773438 176.039062 118.066406 176.039062 C 119.359375 176.039062 120.40625 177.085938 120.40625 178.375 "/></g><path style=" stroke:none;fill-rule:nonzero;fill:rgb(32.939148%,32.939148%,32.939148%);fill-opacity:1;" d="M 32.242188 197.769531 C 32.242188 199.058594 31.195312 200.105469 29.902344 200.105469 C 28.609375 200.105469 27.5625 199.058594 27.5625 197.769531 C 27.5625 196.476562 28.609375 195.433594 29.902344 195.433594 C 31.195312 195.433594 32.242188 196.476562 32.242188 197.769531 "/><path style=" stroke:none;fill-rule:nonzero;fill:rgb(32.939148%,32.939148%,32.939148%);fill-opacity:1;" d="M 40.363281 224.144531 C 40.363281 225.433594 39.3125 226.480469 38.019531 226.480469 C 36.726562 226.480469 35.679688 225.433594 35.679688 224.144531 C 35.679688 222.855469 36.726562 221.808594 38.019531 221.808594 C 39.3125 221.808594 40.363281 222.855469 40.363281 224.144531 "/><g clip-rule="nonzero" clip-path="url(#clip3)"><path style=" stroke:none;fill-rule:nonzero;fill:rgb(32.939148%,32.939148%,32.939148%);fill-opacity:1;" d="M 55.613281 239.226562 C 55.613281 240.515625 54.566406 241.5625 53.273438 241.5625 C 51.980469 241.5625 50.933594 240.515625 50.933594 239.226562 C 50.933594 237.933594 51.980469 236.890625 53.273438 236.890625 C 54.566406 236.890625 55.613281 237.933594 55.613281 239.226562 "/></g><path style=" stroke:none;fill-rule:nonzero;fill:rgb(32.939148%,32.939148%,32.939148%);fill-opacity:1;" d="M 19.585938 203.554688 C 19.585938 204.84375 18.539062 205.890625 17.246094 205.890625 C 15.953125 205.890625 14.902344 204.84375 14.902344 203.554688 C 14.902344 202.265625 15.953125 201.21875 17.246094 201.21875 C 18.539062 201.21875 19.585938 202.265625 19.585938 203.554688 "/><path style=" stroke:none;fill-rule:nonzero;fill:rgb(32.939148%,32.939148%,32.939148%);fill-opacity:1;" d="M 27.933594 226.480469 C 27.933594 227.769531 26.886719 228.816406 25.59375 228.816406 C 24.300781 228.816406 23.253906 227.769531 23.253906 226.480469 C 23.253906 225.191406 24.300781 224.144531 25.59375 224.144531 C 26.886719 224.144531 27.933594 225.191406 27.933594 226.480469 "/><g style="fill:rgb(9.408569%,23.529053%,36.468506%);fill-opacity:1;"><g transform="translate(134.918626, 216.635392)"><path style="stroke:none;" d="M 1.203125 16.765625 C -1.523438 16.765625 -3.898438 16.476562 -5.921875 15.90625 L -5.921875 5.84375 C -3.847656 6.363281 -1.953125 6.625 -0.234375 6.625 C 2.410156 6.625 4.304688 5.796875 5.453125 4.140625 C 6.597656 2.492188 7.171875 -0.0820312 7.171875 -3.59375 L 7.171875 -56.984375 L 19.25 -56.984375 L 19.25 -3.65625 C 19.25 2.988281 17.726562 8.050781 14.6875 11.53125 C 11.65625 15.019531 7.160156 16.765625 1.203125 16.765625 Z M 1.203125 16.765625 "/></g></g><g style="fill:rgb(9.408569%,23.529053%,36.468506%);fill-opacity:1;"><g transform="translate(180.505988, 216.635392)"><path style="stroke:none;" d="M 29.15625 0 L 17.078125 0 L 17.078125 -46.9375 L 1.59375 -46.9375 L 1.59375 -56.984375 L 44.625 -56.984375 L 44.625 -46.9375 L 29.15625 -46.9375 Z M 29.15625 0 "/></g></g><g style="fill:rgb(9.408569%,23.529053%,36.468506%);fill-opacity:1;"><g transform="translate(245.890258, 216.635392)"><path style="stroke:none;" d="M 57.734375 0 L 42.375 0 L 17.578125 -43.109375 L 17.234375 -43.109375 C 17.722656 -35.492188 17.96875 -30.0625 17.96875 -26.8125 L 17.96875 0 L 7.171875 0 L 7.171875 -56.984375 L 22.40625 -56.984375 L 47.171875 -14.3125 L 47.4375 -14.3125 C 47.050781 -21.707031 46.859375 -26.941406 46.859375 -30.015625 L 46.859375 -56.984375 L 57.734375 -56.984375 Z M 57.734375 0 "/></g></g><g style="fill:rgb(9.408569%,23.529053%,36.468506%);fill-opacity:1;"><g transform="translate(329.941294, 216.635392)"><path style="stroke:none;" d=""/></g></g><g style="fill:rgb(9.408569%,23.529053%,36.468506%);fill-opacity:1;"><g transform="translate(369.838997, 216.635392)"><path style="stroke:none;" d="M 57.734375 0 L 42.375 0 L 17.578125 -43.109375 L 17.234375 -43.109375 C 17.722656 -35.492188 17.96875 -30.0625 17.96875 -26.8125 L 17.96875 0 L 7.171875 0 L 7.171875 -56.984375 L 22.40625 -56.984375 L 47.171875 -14.3125 L 47.4375 -14.3125 C 47.050781 -21.707031 46.859375 -26.941406 46.859375 -30.015625 L 46.859375 -56.984375 L 57.734375 -56.984375 Z M 57.734375 0 "/></g></g><g style="fill:rgb(9.408569%,23.529053%,36.468506%);fill-opacity:1;"><g transform="translate(453.890044, 216.635392)"><path style="stroke:none;" d="M 39.984375 0 L 7.171875 0 L 7.171875 -56.984375 L 39.984375 -56.984375 L 39.984375 -47.09375 L 19.25 -47.09375 L 19.25 -34.578125 L 38.546875 -34.578125 L 38.546875 -24.671875 L 19.25 -24.671875 L 19.25 -9.984375 L 39.984375 -9.984375 Z M 39.984375 0 "/></g></g><g style="fill:rgb(9.408569%,23.529053%,36.468506%);fill-opacity:1;"><g transform="translate(517.754456, 216.635392)"><path style="stroke:none;" d="M 29.15625 0 L 17.078125 0 L 17.078125 -46.9375 L 1.59375 -46.9375 L 1.59375 -56.984375 L 44.625 -56.984375 L 44.625 -46.9375 L 29.15625 -46.9375 Z M 29.15625 0 "/></g></g><g style="fill:rgb(9.408569%,23.529053%,36.468506%);fill-opacity:1;"><g transform="translate(583.138711, 216.635392)"><path style="stroke:none;" d="M 62.671875 0 L 48.921875 0 L 41.203125 -29.9375 C 40.910156 -31 40.421875 -33.195312 39.734375 -36.53125 C 39.046875 -39.875 38.648438 -42.117188 38.546875 -43.265625 C 38.390625 -41.859375 38 -39.601562 37.375 -36.5 C 36.75 -33.394531 36.269531 -31.179688 35.9375 -29.859375 L 28.265625 0 L 14.53125 0 L 0 -56.984375 L 11.890625 -56.984375 L 19.171875 -25.875 C 20.453125 -20.132812 21.375 -15.160156 21.9375 -10.953125 C 22.09375 -12.429688 22.453125 -14.722656 23.015625 -17.828125 C 23.578125 -20.929688 24.101562 -23.34375 24.59375 -25.0625 L 32.890625 -56.984375 L 44.3125 -56.984375 L 52.625 -25.0625 C 52.988281 -23.632812 53.441406 -21.453125 53.984375 -18.515625 C 54.523438 -15.578125 54.941406 -13.054688 55.234375 -10.953125 C 55.492188 -12.984375 55.910156 -15.507812 56.484375 -18.53125 C 57.054688 -21.5625 57.578125 -24.007812 58.046875 -25.875 L 65.296875 -56.984375 L 77.171875 -56.984375 Z M 62.671875 0 "/></g></g><g style="fill:rgb(9.408569%,23.529053%,36.468506%);fill-opacity:1;"><g transform="translate(679.465419, 216.635392)"><path style="stroke:none;" d="M 58.890625 -28.578125 C 58.890625 -19.140625 56.550781 -11.882812 51.875 -6.8125 C 47.195312 -1.75 40.492188 0.78125 31.765625 0.78125 C 23.035156 0.78125 16.332031 -1.75 11.65625 -6.8125 C 6.976562 -11.882812 4.640625 -19.164062 4.640625 -28.65625 C 4.640625 -38.132812 6.984375 -45.375 11.671875 -50.375 C 16.359375 -55.382812 23.082031 -57.890625 31.84375 -57.890625 C 40.601562 -57.890625 47.300781 -55.367188 51.9375 -50.328125 C 56.570312 -45.285156 58.890625 -38.035156 58.890625 -28.578125 Z M 17.3125 -28.578125 C 17.3125 -22.203125 18.519531 -17.40625 20.9375 -14.1875 C 23.351562 -10.96875 26.960938 -9.359375 31.765625 -9.359375 C 41.410156 -9.359375 46.234375 -15.765625 46.234375 -28.578125 C 46.234375 -41.410156 41.4375 -47.828125 31.84375 -47.828125 C 27.039062 -47.828125 23.414062 -46.207031 20.96875 -42.96875 C 18.53125 -39.738281 17.3125 -34.941406 17.3125 -28.578125 Z M 17.3125 -28.578125 "/></g></g><g style="fill:rgb(9.408569%,23.529053%,36.468506%);fill-opacity:1;"><g transform="translate(762.152486, 216.635392)"><path style="stroke:none;" d="M 19.25 -31.6875 L 23.15625 -31.6875 C 26.976562 -31.6875 29.796875 -32.320312 31.609375 -33.59375 C 33.429688 -34.875 34.34375 -36.878906 34.34375 -39.609375 C 34.34375 -42.304688 33.410156 -44.226562 31.546875 -45.375 C 29.691406 -46.519531 26.816406 -47.09375 22.921875 -47.09375 L 19.25 -47.09375 Z M 19.25 -21.859375 L 19.25 0 L 7.171875 0 L 7.171875 -56.984375 L 23.78125 -56.984375 C 31.519531 -56.984375 37.25 -55.570312 40.96875 -52.75 C 44.6875 -49.9375 46.546875 -45.660156 46.546875 -39.921875 C 46.546875 -36.566406 45.617188 -33.582031 43.765625 -30.96875 C 41.921875 -28.351562 39.3125 -26.304688 35.9375 -24.828125 C 44.507812 -12.015625 50.097656 -3.738281 52.703125 0 L 39.296875 0 L 25.6875 -21.859375 Z M 19.25 -21.859375 "/></g></g><g style="fill:rgb(9.408569%,23.529053%,36.468506%);fill-opacity:1;"><g transform="translate(834.005809, 216.635392)"><path style="stroke:none;" d="M 53.015625 0 L 39.296875 0 L 24.359375 -24.015625 L 19.25 -20.34375 L 19.25 0 L 7.171875 0 L 7.171875 -56.984375 L 19.25 -56.984375 L 19.25 -30.90625 L 24.015625 -37.609375 L 39.453125 -56.984375 L 52.859375 -56.984375 L 32.96875 -31.765625 Z M 53.015625 0 "/></g></g></g></svg>